<svg width="20" height="20" viewBox="0 0 20 20" fill="none" xmlns="http://www.w3.org/2000/svg">
<path d="M4.65548 6.42651H0.640452C0.462258 6.42651 0.317871 6.57128 0.317871 6.74981V19.6768C0.317871 19.8554 0.462258 20.0001 0.640452 20.0001H4.65548C4.83368 20.0001 4.97806 19.8554 4.97806 19.6768V6.74981C4.97806 6.57128 4.83368 6.42651 4.65548 6.42651Z" fill="#001E42"/>
<path d="M2.64942 0C1.18852 0 0 1.18984 0 2.65235C0 4.11551 1.18852 5.3058 2.64942 5.3058C4.10916 5.3058 5.29671 4.11544 5.29671 2.65235C5.29677 1.18984 4.10916 0 2.64942 0Z" fill="#001E42"/>
<path d="M14.8678 6.10486C13.2552 6.10486 12.0631 6.79961 11.3401 7.58903V6.74944C11.3401 6.57092 11.1957 6.42615 11.0175 6.42615H7.17243C6.99424 6.42615 6.84985 6.57092 6.84985 6.74944V19.6765C6.84985 19.855 6.99424 19.9997 7.17243 19.9997H11.1787C11.3569 19.9997 11.5013 19.855 11.5013 19.6765V13.2806C11.5013 11.1253 12.0854 10.2857 13.5845 10.2857C15.2171 10.2857 15.3469 11.6317 15.3469 13.3915V19.6765C15.3469 19.8551 15.4913 19.9998 15.6695 19.9998H19.6772C19.8554 19.9998 19.9998 19.8551 19.9998 19.6765V12.5858C19.9998 9.38103 19.39 6.10486 14.8678 6.10486Z" fill="#001E42"/>
</svg>
